<svg aria-hidden="true" style="position: absolute; width: 0; height: 0; overflow: hidden;" version="1.1" xmlns="http://www.w3.org/2000/svg" xmlns:xlink="http://www.w3.org/1999/xlink">
<defs>
<symbol id="icon-calendar" viewBox="0 0 34 32">
<path d="M34 30.5v-19c0-0.276-0.224-0.5-0.5-0.5s-0.5 0.224-0.5 0.5v19c0 0.276-0.224 0.5-0.5 0.5h-31c-0.276 0-0.5-0.224-0.5-0.5v-19c0-0.276-0.224-0.5-0.5-0.5s-0.5 0.224-0.5 0.5v19c0 0.827 0.673 1.5 1.5 1.5h31c0.827 0 1.5-0.673 1.5-1.5zM4.5 23c-0.276 0-0.5 0.224-0.5 0.5s0.224 0.5 0.5 0.5h1.5v3.5c0 0.276 0.224 0.5 0.5 0.5s0.5-0.224 0.5-0.5v-3.5h6v3.5c0 0.276 0.224 0.5 0.5 0.5s0.5-0.224 0.5-0.5v-3.5h6v3.5c0 0.276 0.224 0.5 0.5 0.5s0.5-0.224 0.5-0.5v-3.5h6v3.5c0 0.276 0.224 0.5 0.5 0.5s0.5-0.224 0.5-0.5v-3.5h1.5c0.276 0 0.5-0.224 0.5-0.5s-0.224-0.5-0.5-0.5h-1.5v-5h1.5c0.276 0 0.5-0.224 0.5-0.5s-0.224-0.5-0.5-0.5h-1.5v-4.5c0-0.276-0.224-0.5-0.5-0.5s-0.5 0.224-0.5 0.5v4.5h-6v-4.5c0-0.276-0.224-0.5-0.5-0.5s-0.5 0.224-0.5 0.5v4.5h-6v-4.5c0-0.276-0.224-0.5-0.5-0.5s-0.5 0.224-0.5 0.5v4.5h-6v-4.5c0-0.276-0.224-0.5-0.5-0.5s-0.5 0.224-0.5 0.5v4.5h-1.5c-0.276 0-0.5 0.224-0.5 0.5s0.224 0.5 0.5 0.5h1.5v5h-1.5zM27 18v5h-6v-5h6zM20 18v5h-6v-5h6zM7 18h6v5h-6v-5zM28.5 3h4.25c0.087 0 0.25 0 0.25 0.5v4.5h-32v-4.5c0-0.276 0.224-0.5 0.5-0.5h4c0.276 0 0.5-0.224 0.5-0.5s-0.224-0.5-0.5-0.5h-4c-0.827 0-1.5 0.673-1.5 1.5v5c0 0.276 0.224 0.5 0.5 0.5h33c0.276 0 0.5-0.224 0.5-0.5v-5c0-1.106-0.646-1.5-1.25-1.5h-4.25c-0.276 0-0.5 0.224-0.5 0.5s0.224 0.5 0.5 0.5zM22.5 3c0.276 0 0.5-0.224 0.5-0.5s-0.224-0.5-0.5-0.5h-11c-0.276 0-0.5 0.224-0.5 0.5s0.224 0.5 0.5 0.5h11zM9 4.5v-4c0-0.276-0.224-0.5-0.5-0.5s-0.5 0.224-0.5 0.5v4c0 0.276 0.224 0.5 0.5 0.5s0.5-0.224 0.5-0.5zM25.5 5c0.276 0 0.5-0.224 0.5-0.5v-4c0-0.276-0.224-0.5-0.5-0.5s-0.5 0.224-0.5 0.5v4c0 0.276 0.224 0.5 0.5 0.5z"></path>
</symbol>
<symbol id="icon-expand" viewBox="0 0 32 32">
<path d="M32 30.5v-29c0-0.827-0.673-1.5-1.5-1.5h-29c-0.827 0-1.5 0.673-1.5 1.5v9c0 0.276 0.224 0.5 0.5 0.5s0.5-0.224 0.5-0.5v-9c0-0.276 0.225-0.5 0.5-0.5h29c0.275 0 0.5 0.224 0.5 0.5v29c0 0.276-0.225 0.5-0.5 0.5h-9c-0.276 0-0.5 0.224-0.5 0.5s0.224 0.5 0.5 0.5h9c0.827 0 1.5-0.673 1.5-1.5zM1.5 13c-0.827 0-1.5 0.673-1.5 1.5v16c0 0.827 0.673 1.5 1.5 1.5h16c0.827 0 1.5-0.673 1.5-1.5v-16.793l7-7v6.793c0 0.276 0.224 0.5 0.5 0.5s0.5-0.224 0.5-0.5v-8c0-0.276-0.224-0.5-0.5-0.5h-8c-0.276 0-0.5 0.224-0.5 0.5s0.224 0.5 0.5 0.5h6.792l-7 7h-16.792zM18 30.5c0 0.276-0.225 0.5-0.5 0.5h-16c-0.275 0-0.5-0.224-0.5-0.5v-16c0-0.276 0.225-0.5 0.5-0.5h16.5v16.5z"></path>
</symbol>
<symbol id="icon-gears" viewBox="0 0 42 32">
<path d="M3.692 21.72c0.176 0.042 0.415 0.259 0.484 0.457l0.35 0.844c0.079 0.162 0.064 0.483-0.030 0.637l-1.397 2.284c-0.299 0.49-0.237 1.184 0.165 1.634l1.183 1.182c0.412 0.366 1.139 0.432 1.613 0.145l2.284-1.397c0.143-0.088 0.45-0.119 0.665-0.018l0.843 0.348c0.17 0.059 0.387 0.297 0.429 0.473l0.627 2.604c0.133 0.552 0.66 1.006 1.226 1.058 0 0 0.347 0.032 0.867 0.032s0.867-0.032 0.868-0.032c0.565-0.051 1.092-0.506 1.225-1.058l0.628-2.604c0.042-0.175 0.258-0.414 0.456-0.483l0.844-0.35c0.149-0.073 0.494-0.058 0.637 0.030l2.284 1.397c0.201 0.123 0.441 0.188 0.696 0.188 0.345 0 0.679-0.121 0.938-0.352l1.182-1.183c0.382-0.429 0.444-1.123 0.145-1.613l-1.397-2.284c-0.094-0.154-0.109-0.475-0.018-0.665l0.348-0.843c0.059-0.17 0.297-0.387 0.473-0.429l2.604-0.627c0.552-0.133 1.006-0.66 1.058-1.226 0 0 0.032-0.347 0.032-0.867s-0.032-0.867-0.032-0.868c-0.051-0.565-0.506-1.092-1.058-1.226l-2.603-0.626c-0.176-0.042-0.415-0.259-0.484-0.457l-0.35-0.844c-0.079-0.162-0.064-0.483 0.030-0.637l1.397-2.284c0.299-0.49 0.237-1.184-0.165-1.634l-1.183-1.182c-0.413-0.367-1.141-0.433-1.613-0.145l-2.284 1.397c-0.143 0.087-0.451 0.12-0.665 0.018l-0.843-0.348c-0.17-0.059-0.386-0.297-0.428-0.473l-0.628-2.604c-0.133-0.552-0.66-1.006-1.226-1.058-0.002 0.001-0.349-0.031-0.869-0.031s-0.867 0.032-0.868 0.032c-0.565 0.051-1.092 0.506-1.226 1.058l-0.626 2.602c-0.042 0.176-0.259 0.415-0.457 0.484l-0.844 0.35c-0.15 0.073-0.494 0.057-0.637-0.030l-2.283-1.397c-0.473-0.288-1.185-0.238-1.634 0.164l-1.182 1.183c-0.382 0.429-0.444 1.123-0.145 1.613l1.397 2.284c0.094 0.154 0.109 0.475 0.018 0.665l-0.348 0.843c-0.059 0.17-0.297 0.387-0.473 0.429l-2.604 0.627c-0.552 0.133-1.006 0.66-1.058 1.226 0.002 0-0.030 0.347-0.030 0.867s0.032 0.867 0.032 0.868c0.051 0.565 0.506 1.092 1.058 1.226l2.602 0.626zM1 19c0-0.458 0.027-0.767 0.028-0.777 0.012-0.135 0.165-0.312 0.296-0.344l2.604-0.627c0.505-0.122 1.014-0.584 1.172-1.047l0.324-0.787c0.228-0.467 0.196-1.153-0.075-1.597l-1.397-2.283c-0.067-0.111-0.048-0.331 0.018-0.406l1.141-1.142c0.091-0.081 0.323-0.101 0.427-0.038l2.284 1.397c0.433 0.265 1.175 0.283 1.568 0.088l0.788-0.326c0.491-0.169 0.953-0.678 1.075-1.184l0.626-2.603c0.032-0.132 0.209-0.285 0.344-0.297 0.010 0 0.319-0.027 0.777-0.027s0.767 0.027 0.777 0.028c0.135 0.012 0.312 0.165 0.344 0.296l0.627 2.603c0.122 0.505 0.583 1.015 1.047 1.173l0.787 0.324c0.457 0.224 1.165 0.189 1.597-0.075l2.283-1.397c0.104-0.063 0.35-0.030 0.406 0.018l1.142 1.141c0.086 0.097 0.105 0.316 0.038 0.427l-1.397 2.284c-0.271 0.443-0.303 1.13-0.088 1.568l0.326 0.788c0.169 0.491 0.678 0.953 1.184 1.075l2.603 0.626c0.132 0.032 0.285 0.209 0.297 0.344 0 0.010 0.027 0.319 0.027 0.777s-0.027 0.767-0.028 0.777c-0.012 0.135-0.165 0.312-0.296 0.344l-2.604 0.627c-0.505 0.122-1.014 0.584-1.172 1.047l-0.324 0.787c-0.228 0.467-0.196 1.153 0.075 1.597l1.397 2.283c0.067 0.111 0.048 0.331-0.018 0.406l-1.141 1.142c-0.054 0.048-0.152 0.079-0.251 0.079-0.069 0-0.133-0.015-0.175-0.041l-2.284-1.397c-0.432-0.264-1.174-0.283-1.568-0.088l-0.788 0.326c-0.491 0.169-0.953 0.679-1.074 1.184l-0.627 2.603c-0.032 0.132-0.209 0.285-0.344 0.297-0.011 0-0.32 0.027-0.778 0.027s-0.767-0.027-0.777-0.028c-0.135-0.012-0.312-0.165-0.344-0.296l-0.627-2.604c-0.122-0.505-0.584-1.014-1.047-1.172l-0.787-0.324c-0.204-0.1-0.451-0.152-0.715-0.152-0.329 0-0.642 0.081-0.882 0.228l-2.283 1.397c-0.104 0.063-0.351 0.029-0.406-0.018l-1.142-1.142c-0.086-0.097-0.105-0.316-0.038-0.427l1.397-2.284c0.271-0.443 0.303-1.13 0.088-1.568l-0.326-0.788c-0.169-0.491-0.678-0.953-1.184-1.075l-2.603-0.626c-0.132-0.032-0.285-0.209-0.297-0.344 0-0.010-0.027-0.319-0.027-0.777zM13 24.5c3.033 0 5.5-2.467 5.5-5.5s-2.467-5.5-5.5-5.5-5.5 2.467-5.5 5.5 2.467 5.5 5.5 5.5zM13 14.5c2.481 0 4.5 2.019 4.5 4.5s-2.019 4.5-4.5 4.5-4.5-2.019-4.5-4.5 2.019-4.5 4.5-4.5zM27.477 5.314c-0.040 0.061-0.185 0.138-0.259 0.138l-1.861-0.018c-0.452 0-0.905 0.321-1.053 0.746 0 0-0.082 0.233-0.172 0.59s-0.128 0.601-0.128 0.601c-0.070 0.451 0.181 0.95 0.584 1.161l1.641 0.86c0.063 0.033 0.156 0.172 0.166 0.273l0.093 0.635c0.015 0.070-0.033 0.23-0.084 0.28l-1.322 1.296c-0.331 0.324-0.418 0.878-0.19 1.313l0.599 1c0.253 0.372 0.801 0.562 1.231 0.428l1.824-0.558c0.099 0 0.198 0.038 0.254 0.083l0.515 0.38c0.060 0.040 0.139 0.187 0.138 0.259l-0.018 1.852c-0.004 0.456 0.316 0.913 0.746 1.063 0 0 0.233 0.082 0.59 0.172s0.601 0.128 0.601 0.128c0.026 0.004 0.13 0.012 0.156 0.012 0.408 0 0.822-0.245 1.005-0.596l0.86-1.641c0.033-0.063 0.172-0.156 0.273-0.166l0.663-0.096c0.1 0 0.218 0.052 0.251 0.086l1.296 1.322c0.315 0.322 0.846 0.437 1.313 0.19l0.999-0.599c0.382-0.26 0.567-0.79 0.429-1.231l-0.552-1.767c-0.021-0.068 0.012-0.232 0.078-0.311l0.38-0.515c0.040-0.061 0.185-0.138 0.259-0.138l1.861 0.018c0.452 0 0.905-0.321 1.053-0.746 0 0 0.082-0.233 0.172-0.59s0.128-0.601 0.128-0.601c0.070-0.451-0.181-0.95-0.584-1.161l-1.641-0.86c-0.063-0.033-0.156-0.172-0.166-0.273l-0.092-0.633c-0.015-0.070 0.033-0.23 0.084-0.28l1.322-1.296c0.331-0.324 0.418-0.878 0.19-1.313l-0.599-1c-0.253-0.371-0.8-0.563-1.231-0.429l-1.825 0.558c-0.099 0-0.198-0.038-0.254-0.083l-0.515-0.38c-0.060-0.040-0.139-0.187-0.138-0.259l0.018-1.852c0.004-0.456-0.316-0.913-0.746-1.063 0 0-0.233-0.082-0.59-0.172s-0.601-0.128-0.601-0.128c-0.026-0.003-0.13-0.011-0.156-0.011-0.408 0-0.822 0.245-1.005 0.596l-0.86 1.641c-0.033 0.063-0.172 0.156-0.273 0.166l-0.663 0.095c-0.1 0-0.218-0.052-0.251-0.086l-1.296-1.322c-0.314-0.321-0.844-0.437-1.313-0.19l-1 0.598c-0.382 0.26-0.567 0.79-0.429 1.231l0.552 1.767c0.021 0.068-0.012 0.232-0.078 0.311l-0.379 0.515zM28.297 5.886l0.343-0.466c0.268-0.317 0.372-0.834 0.248-1.229l-0.551-1.766c-0.005-0.028 0.017-0.091 0.012-0.092l0.948-0.568 0.113 0.017 1.297 1.322c0.23 0.234 0.609 0.386 0.965 0.386 0.082 0 0.161-0.008 0.204-0.019l0.575-0.085c0.412-0.036 0.851-0.328 1.043-0.694l0.859-1.64c0.016-0.025 0.079-0.061 0.12-0.061 0.011 0.001 0.215 0.035 0.513 0.109s0.493 0.142 0.502 0.146c0.031 0.013 0.076 0.078 0.078 0.11l-0.018 1.852c-0.004 0.414 0.245 0.879 0.567 1.089l0.465 0.343c0.309 0.261 0.839 0.371 1.229 0.248l1.774-0.552c0.042 0 0.089 0.026 0.083 0.013l0.568 0.948c0.011 0.026 0 0.092-0.017 0.113l-1.322 1.297c-0.295 0.291-0.448 0.795-0.367 1.169l0.084 0.575c0.036 0.412 0.328 0.851 0.695 1.043l1.64 0.859c0.028 0.018 0.063 0.088 0.061 0.12-0.001 0.011-0.035 0.215-0.109 0.513s-0.142 0.493-0.146 0.502c-0.013 0.031-0.078 0.076-0.11 0.078l-1.862-0.018c-0.411 0-0.871 0.249-1.079 0.567l-0.342 0.465c-0.268 0.317-0.372 0.834-0.248 1.229l0.551 1.766c0.005 0.027-0.017 0.091-0.012 0.092l-0.948 0.568-0.113-0.017-1.297-1.322c-0.23-0.234-0.609-0.386-0.965-0.386-0.082 0-0.161 0.008-0.204 0.019l-0.575 0.085c-0.412 0.036-0.851 0.328-1.043 0.694l-0.859 1.64c-0.016 0.025-0.079 0.061-0.12 0.061v0c-0.011-0.001-0.215-0.035-0.513-0.109-0.297-0.075-0.493-0.142-0.502-0.146-0.031-0.013-0.076-0.078-0.078-0.11l0.018-1.852c0.004-0.414-0.245-0.879-0.567-1.089l-0.465-0.343c-0.222-0.188-0.549-0.3-0.875-0.3-0.126 0-0.246 0.018-0.355 0.052l-1.774 0.552c-0.043 0-0.090-0.023-0.083-0.013l-0.568-0.948c-0.011-0.026 0-0.092 0.017-0.113l1.322-1.297c0.295-0.291 0.448-0.795 0.367-1.169l-0.084-0.574c-0.036-0.412-0.328-0.851-0.695-1.043l-1.64-0.859c-0.028-0.018-0.063-0.088-0.061-0.12 0.001-0.011 0.035-0.215 0.109-0.513 0.075-0.297 0.142-0.493 0.146-0.502 0.013-0.031 0.078-0.076 0.11-0.078l1.862 0.018c0.411 0 0.871-0.249 1.079-0.567zM33 12c1.654 0 3-1.346 3-3s-1.346-3-3-3-3 1.346-3 3 1.346 3 3 3zM33 7c1.103 0 2 0.897 2 2s-0.897 2-2 2-2-0.897-2-2 0.897-2 2-2z"></path>
</symbol>
<symbol id="icon-key" viewBox="0 0 32 32">
<path d="M14.683 14.698c0.117 0 0.235-0.041 0.33-0.124l11.317-9.922-0.66-0.752-11.317 9.921c-0.208 0.182-0.229 0.498-0.046 0.706 0.099 0.113 0.237 0.171 0.376 0.171zM10.188 32c6.142 0 9.812-4.83 9.812-9.5 0-1.346-0.322-2.829-0.798-3.792l4.522-2.261c0.169-0.085 0.276-0.258 0.276-0.447v-4h3c0.011 0 0.102-0.006 0.113-0.006 0.666-0.045 0.865-0.257 0.887-0.994v-4h3c0.129 0 0.218 0.014 0.278 0.023 0.121 0.019 0.347 0.054 0.543-0.122 0.202-0.18 0.193-0.408 0.185-0.609-0.002-0.072-0.006-0.167-0.006-0.292v-4.531c0-0.81-0.659-1.469-1.469-1.469h-3.875c-0.354 0-0.698 0.129-0.969 0.364l-13.187 11.56c-0.649-0.13-1.63-0.299-2.313-0.299-5.617 0-10.187 4.57-10.187 10.187s4.57 10.188 10.188 10.188zM10.188 12.625c0.501 0 1.359 0.12 2.354 0.328 0.155 0.034 0.314-0.010 0.432-0.113l13.371-11.722c0.087-0.076 0.198-0.118 0.311-0.118h3.875c0.259 0 0.469 0.21 0.469 0.469v4.531h-3.5c-0.276 0-0.5 0.224-0.5 0.5v4.5h-3.5c-0.276 0-0.5 0.224-0.5 0.5v4.191l-4.724 2.362c-0.131 0.065-0.227 0.186-0.262 0.328s-0.006 0.293 0.080 0.412c0.44 0.607 0.906 2.114 0.906 3.707 0 4.178-3.296 8.5-8.812 8.5-5.066 0-9.188-4.122-9.188-9.188s4.122-9.187 9.188-9.187zM8.5 27c1.93 0 3.5-1.57 3.5-3.5s-1.57-3.5-3.5-3.5-3.5 1.57-3.5 3.5 1.57 3.5 3.5 3.5zM8.5 21c1.378 0 2.5 1.122 2.5 2.5s-1.122 2.5-2.5 2.5-2.5-1.122-2.5-2.5 1.122-2.5 2.5-2.5z"></path>
</symbol>
<symbol id="icon-profile-male" viewBox="0 0 36 32">
<path d="M0.5 31.983c0.268 0.067 0.542-0.088 0.612-0.354 1.030-3.843 5.216-4.839 7.718-5.435 0.627-0.149 1.122-0.267 1.444-0.406 2.85-1.237 3.779-3.227 4.057-4.679 0.034-0.175-0.029-0.355-0.165-0.473-1.484-1.281-2.736-3.204-3.526-5.416-0.022-0.063-0.057-0.121-0.103-0.171-1.045-1.136-1.645-2.337-1.645-3.294 0-0.559 0.211-0.934 0.686-1.217 0.145-0.087 0.236-0.24 0.243-0.408 0.221-5.094 3.849-9.104 8.299-9.13 0.005 0 0.102 0.007 0.107 0.007 4.472 0.062 8.077 4.158 8.206 9.324 0.004 0.143 0.068 0.277 0.178 0.369 0.313 0.265 0.459 0.601 0.459 1.057 0 0.801-0.427 1.786-1.201 2.772-0.037 0.047-0.065 0.101-0.084 0.158-0.8 2.536-2.236 4.775-3.938 6.145-0.144 0.116-0.212 0.302-0.178 0.483 0.278 1.451 1.207 3.44 4.057 4.679 0.337 0.146 0.86 0.26 1.523 0.403 2.477 0.536 6.622 1.435 7.639 5.232 0.060 0.223 0.262 0.37 0.482 0.37 0.043 0 0.086-0.006 0.13-0.017 0.267-0.072 0.425-0.346 0.354-0.613-1.175-4.387-5.871-5.404-8.393-5.95-0.585-0.127-1.090-0.236-1.336-0.344-1.86-0.808-3.006-2.039-3.411-3.665 1.727-1.483 3.172-3.771 3.998-6.337 0.877-1.14 1.359-2.314 1.359-3.317 0-0.669-0.216-1.227-0.644-1.663-0.238-5.604-4.237-10.017-9.2-10.088l-0.149-0.002c-4.873 0.026-8.889 4.323-9.24 9.83-0.626 0.46-0.944 1.105-0.944 1.924 0 1.183 0.669 2.598 1.84 3.896 0.809 2.223 2.063 4.176 3.556 5.543-0.403 1.632-1.55 2.867-3.414 3.676-0.241 0.105-0.721 0.22-1.277 0.352-2.541 0.604-7.269 1.729-8.453 6.147-0.071 0.267 0.087 0.54 0.354 0.612z"></path>
</symbol>
<symbol id="icon-dollar" viewBox="0 0 32 32">
<path d="M0 25v-18h32v18h-32zM2 8.938v14.062h28v-14.062h-28zM21 16c0-3.313-2.238-6-5-6h13v12h-13c2.762 0 5-2.687 5-6zM25 18c0.828 0 1.5-0.896 1.5-2s-0.672-2-1.5-2-1.5 0.896-1.5 2 0.672 2 1.5 2zM18.118 13.478c-0.015 0.055-0.036 0.094-0.062 0.119-0.027 0.025-0.063 0.037-0.109 0.037s-0.118-0.028-0.219-0.086c-0.1-0.059-0.223-0.121-0.368-0.189-0.146-0.068-0.314-0.13-0.506-0.187s-0.402-0.083-0.631-0.083c-0.18 0-0.336 0.021-0.469 0.065s-0.245 0.104-0.334 0.18c-0.090 0.077-0.156 0.17-0.2 0.277s-0.065 0.222-0.065 0.342c0 0.18 0.049 0.335 0.147 0.466s0.229 0.248 0.394 0.35c0.165 0.103 0.351 0.198 0.56 0.287 0.207 0.090 0.42 0.185 0.637 0.284 0.217 0.101 0.429 0.214 0.637 0.341s0.395 0.279 0.557 0.456 0.293 0.385 0.394 0.624c0.1 0.24 0.149 0.521 0.149 0.847 0 0.425-0.078 0.797-0.236 1.118s-0.373 0.588-0.645 0.802c-0.271 0.215-0.587 0.376-0.949 0.484-0.046 0.014-0.096 0.020-0.143 0.031v1.092h-0.983v-0.963c-0.013 0-0.024 0.002-0.036 0.002-0.279 0-0.539-0.022-0.778-0.067s-0.451-0.101-0.634-0.164c-0.184-0.064-0.336-0.131-0.459-0.201s-0.211-0.132-0.265-0.186c-0.054-0.054-0.093-0.132-0.116-0.234-0.023-0.103-0.035-0.249-0.035-0.441 0-0.129 0.004-0.237 0.013-0.325s0.022-0.158 0.041-0.213 0.043-0.093 0.075-0.116c0.031-0.022 0.067-0.034 0.109-0.034 0.058 0 0.14 0.034 0.247 0.103s0.243 0.145 0.409 0.228c0.167 0.084 0.365 0.159 0.597 0.229 0.231 0.068 0.499 0.103 0.803 0.103 0.2 0 0.379-0.024 0.537-0.072s0.293-0.115 0.403-0.203 0.194-0.196 0.253-0.325c0.059-0.13 0.088-0.273 0.088-0.433 0-0.183-0.051-0.34-0.15-0.472-0.1-0.131-0.23-0.247-0.391-0.35-0.16-0.102-0.342-0.197-0.546-0.287s-0.414-0.185-0.631-0.284c-0.216-0.1-0.427-0.213-0.631-0.341s-0.386-0.278-0.546-0.455c-0.16-0.177-0.291-0.387-0.39-0.628s-0.15-0.531-0.15-0.868c0-0.388 0.072-0.728 0.215-1.021s0.337-0.537 0.581-0.73 0.531-0.338 0.862-0.434c0.17-0.050 0.346-0.085 0.526-0.109v-1.034h0.983v1.034c0.039 0.005 0.078 0.003 0.117 0.009 0.191 0.029 0.371 0.068 0.537 0.118 0.167 0.049 0.314 0.104 0.444 0.167 0.129 0.062 0.214 0.113 0.256 0.155s0.069 0.076 0.085 0.105c0.014 0.029 0.026 0.068 0.037 0.116s0.018 0.108 0.021 0.182c0.004 0.072 0.006 0.163 0.006 0.271 0 0.121-0.003 0.224-0.009 0.308-0.009 0.079-0.019 0.149-0.034 0.203zM11 16c0 3.313 2.238 6 5 6h-13v-12h13c-2.762 0-5 2.687-5 6zM7 14c-0.829 0-1.5 0.896-1.5 2s0.671 2 1.5 2c0.828 0 1.5-0.896 1.5-2s-0.672-2-1.5-2z"></path>
</symbol>
<symbol id="icon-dollar1" viewBox="0 0 38 32">
<path d="M36.002 23.010l0.057-17.089-31.050 0.019-0.001-1.96h32.992v19.031l-1.998-0.001zM34.995 26.017l-1.997-0.002 0.057-17.089-31.050 0.020-0.001-1.96h32.992v19.031zM32.053 28.020h-32.053v-18.030h32.053v18.030zM30.049 11.931h-28.046v14.086h28.045v-14.086zM27.045 24.515c0 0.177 0.044 0.342 0.101 0.5h-11.12c2.766 0 5.009-2.69 5.009-6.010s-2.243-6.010-5.009-6.010h11.119c-0.057 0.158-0.101 0.323-0.101 0.501 0 0.83 0.672 1.502 1.502 1.502 0.178 0 0.343-0.044 0.501-0.101v8.215c-0.158-0.056-0.323-0.101-0.501-0.101-0.829 0.001-1.501 0.674-1.501 1.504zM25.041 16.919c-0.83 0-1.502 0.896-1.502 2.003s0.672 2.003 1.502 2.003 1.502-0.896 1.502-2.003-0.672-2.003-1.502-2.003zM18.123 15.394c0.015 0.029 0.027 0.068 0.037 0.116 0.011 0.048 0.018 0.109 0.021 0.182 0.005 0.073 0.007 0.164 0.007 0.273 0 0.121-0.003 0.224-0.009 0.307-0.007 0.084-0.018 0.153-0.031 0.207-0.016 0.055-0.036 0.095-0.062 0.119-0.027 0.025-0.064 0.038-0.11 0.038s-0.118-0.029-0.219-0.087c-0.101-0.059-0.224-0.121-0.369-0.189s-0.315-0.131-0.507-0.187-0.402-0.084-0.632-0.084c-0.18 0-0.336 0.021-0.469 0.065-0.134 0.044-0.246 0.104-0.335 0.181s-0.157 0.17-0.2 0.277c-0.044 0.108-0.066 0.223-0.066 0.343 0 0.18 0.049 0.335 0.147 0.467s0.229 0.248 0.395 0.35c0.165 0.103 0.352 0.198 0.56 0.288s0.421 0.185 0.638 0.284c0.217 0.101 0.43 0.214 0.639 0.342 0.209 0.127 0.395 0.279 0.557 0.456 0.163 0.178 0.295 0.386 0.395 0.626s0.15 0.522 0.15 0.848c0 0.425-0.080 0.799-0.238 1.119-0.158 0.321-0.373 0.59-0.645 0.805s-0.588 0.376-0.951 0.484c-0.046 0.014-0.096 0.020-0.143 0.031v1.094h-0.985v-0.965c-0.013 0-0.024 0.003-0.037 0.003-0.279 0-0.539-0.023-0.779-0.068s-0.452-0.101-0.635-0.164c-0.184-0.064-0.337-0.132-0.46-0.202s-0.212-0.132-0.266-0.186-0.093-0.132-0.116-0.234-0.035-0.25-0.035-0.442c0-0.129 0.004-0.238 0.013-0.325 0.008-0.088 0.022-0.159 0.041-0.214 0.019-0.054 0.044-0.093 0.075-0.116 0.031-0.022 0.068-0.034 0.109-0.034 0.059 0 0.141 0.034 0.248 0.104 0.106 0.068 0.243 0.145 0.41 0.228s0.366 0.159 0.598 0.228c0.231 0.069 0.5 0.104 0.804 0.104 0.2 0 0.38-0.024 0.538-0.072s0.293-0.116 0.404-0.203c0.11-0.088 0.194-0.197 0.253-0.326s0.088-0.274 0.088-0.433c0-0.184-0.051-0.342-0.15-0.473-0.1-0.132-0.23-0.248-0.391-0.351s-0.343-0.198-0.547-0.287c-0.205-0.090-0.415-0.185-0.632-0.285s-0.428-0.214-0.632-0.341c-0.204-0.127-0.387-0.279-0.547-0.457-0.16-0.177-0.291-0.387-0.391-0.628-0.1-0.242-0.15-0.532-0.15-0.87 0-0.388 0.072-0.729 0.216-1.022 0.144-0.294 0.338-0.538 0.582-0.732s0.532-0.339 0.863-0.435c0.17-0.049 0.346-0.085 0.527-0.109v-1.035h0.985v1.035c0.039 0.005 0.078 0.003 0.117 0.009 0.192 0.029 0.372 0.068 0.539 0.118 0.166 0.050 0.314 0.105 0.443 0.168s0.215 0.113 0.258 0.155c0.039 0.037 0.067 0.072 0.082 0.102zM11.018 19.005c0 3.319 2.242 6.010 5.008 6.010h-11.119c0.056-0.158 0.101-0.323 0.101-0.5 0-0.83-0.673-1.503-1.502-1.503-0.178 0-0.343 0.045-0.501 0.101v-8.215c0.158 0.057 0.323 0.101 0.501 0.101 0.83 0 1.502-0.672 1.502-1.502 0-0.178-0.045-0.343-0.101-0.501h11.119c-2.766-0.001-5.008 2.69-5.008 6.009zM7.011 16.919c-0.83 0-1.502 0.896-1.502 2.003s0.673 2.003 1.502 2.003c0.83 0 1.502-0.896 1.502-2.003s-0.672-2.003-1.502-2.003z"></path>
</symbol>
<symbol id="icon-checked" viewBox="0 0 32 32">
<path d="M26.5 27h-3c-0.276 0-0.5-0.224-0.5-0.5s0.224-0.5 0.5-0.5h2.5v-2.5c0-0.276 0.224-0.5 0.5-0.5 0.275 0 0.5 0.224 0.5 0.5v3c0 0.276-0.225 0.5-0.5 0.5zM26.5 21c-0.276 0-0.5-0.224-0.5-0.5v-3c0-0.276 0.224-0.5 0.5-0.5 0.275 0 0.5 0.224 0.5 0.5v3c0 0.276-0.225 0.5-0.5 0.5zM26.5 15c-0.276 0-0.5-0.224-0.5-0.5v-3c0-0.276 0.224-0.5 0.5-0.5 0.275 0 0.5 0.224 0.5 0.5v3c0 0.276-0.225 0.5-0.5 0.5zM26.5 9c-0.276 0-0.5-0.224-0.5-0.5v-2.5h-2.5c-0.276 0-0.5-0.224-0.5-0.5s0.224-0.5 0.5-0.5h3c0.275 0 0.5 0.224 0.5 0.5v3c0 0.276-0.225 0.5-0.5 0.5zM14.666 21.053c-0.184 0.185-0.483 0.185-0.668 0l-1.002-1.002c-0.002-0.003-0.001-0.007-0.003-0.009l-3.188-3.212c-0.185-0.184-0.185-0.483 0-0.668l1.002-1.003c0.185-0.185 0.484-0.185 0.669 0l2.86 2.881 6.014-6.013c0.184-0.185 0.483-0.185 0.668 0l1.002 1.003c0.186 0.185 0.186 0.484 0 0.669l-7.354 7.354zM20.5 6h-3c-0.276 0-0.5-0.224-0.5-0.5s0.224-0.5 0.5-0.5h3c0.275 0 0.5 0.224 0.5 0.5s-0.225 0.5-0.5 0.5zM14.5 6h-3c-0.276 0-0.5-0.224-0.5-0.5s0.224-0.5 0.5-0.5h3c0.275 0 0.5 0.224 0.5 0.5s-0.225 0.5-0.5 0.5zM8.5 27h-3c-0.276 0-0.5-0.224-0.5-0.5v-3c0-0.276 0.224-0.5 0.5-0.5s0.5 0.224 0.5 0.5v2.5h2.5c0.276 0 0.5 0.224 0.5 0.5s-0.224 0.5-0.5 0.5zM8.5 6h-2.5v2.5c0 0.276-0.224 0.5-0.5 0.5s-0.5-0.224-0.5-0.5v-3c0-0.276 0.224-0.5 0.5-0.5h3c0.276 0 0.5 0.224 0.5 0.5s-0.224 0.5-0.5 0.5zM5.5 11c0.276 0 0.5 0.224 0.5 0.5v3c0 0.276-0.224 0.5-0.5 0.5s-0.5-0.224-0.5-0.5v-3c0-0.276 0.224-0.5 0.5-0.5zM5.5 17c0.276 0 0.5 0.224 0.5 0.5v3c0 0.276-0.224 0.5-0.5 0.5s-0.5-0.224-0.5-0.5v-3c0-0.276 0.224-0.5 0.5-0.5zM11.5 26h3c0.275 0 0.5 0.224 0.5 0.5s-0.225 0.5-0.5 0.5h-3c-0.276 0-0.5-0.224-0.5-0.5s0.224-0.5 0.5-0.5zM17.5 26h3c0.275 0 0.5 0.224 0.5 0.5s-0.225 0.5-0.5 0.5h-3c-0.276 0-0.5-0.224-0.5-0.5s0.224-0.5 0.5-0.5z"></path>
</symbol>
<symbol id="icon-error" viewBox="0 0 32 32">
<path d="M26.5 27h-3c-0.276 0-0.5-0.224-0.5-0.5s0.224-0.5 0.5-0.5h2.5v-2.5c0-0.276 0.224-0.5 0.5-0.5 0.275 0 0.5 0.224 0.5 0.5v3c0 0.276-0.225 0.5-0.5 0.5zM26.5 21c-0.276 0-0.5-0.224-0.5-0.5v-3c0-0.276 0.224-0.5 0.5-0.5 0.275 0 0.5 0.224 0.5 0.5v3c0 0.276-0.225 0.5-0.5 0.5zM26.5 15c-0.276 0-0.5-0.224-0.5-0.5v-3c0-0.276 0.224-0.5 0.5-0.5 0.275 0 0.5 0.224 0.5 0.5v3c0 0.276-0.225 0.5-0.5 0.5zM26.5 9c-0.276 0-0.5-0.224-0.5-0.5v-2.5h-2.5c-0.276 0-0.5-0.224-0.5-0.5s0.224-0.5 0.5-0.5h3c0.275 0 0.5 0.224 0.5 0.5v3c0 0.276-0.225 0.5-0.5 0.5zM20.5 27h-3c-0.276 0-0.5-0.224-0.5-0.5s0.224-0.5 0.5-0.5h3c0.275 0 0.5 0.224 0.5 0.5s-0.225 0.5-0.5 0.5zM20.5 6h-3c-0.276 0-0.5-0.224-0.5-0.5s0.224-0.5 0.5-0.5h3c0.275 0 0.5 0.224 0.5 0.5s-0.225 0.5-0.5 0.5zM14.5 6h-3c-0.276 0-0.5-0.224-0.5-0.5s0.224-0.5 0.5-0.5h3c0.275 0 0.5 0.224 0.5 0.5s-0.225 0.5-0.5 0.5zM8.5 27h-3c-0.276 0-0.5-0.224-0.5-0.5v-3c0-0.276 0.224-0.5 0.5-0.5s0.5 0.224 0.5 0.5v2.5h2.5c0.276 0 0.5 0.224 0.5 0.5s-0.224 0.5-0.5 0.5zM8.5 6h-2.5v2.5c0 0.276-0.224 0.5-0.5 0.5s-0.5-0.224-0.5-0.5v-3c0-0.276 0.224-0.5 0.5-0.5h3c0.276 0 0.5 0.224 0.5 0.5s-0.224 0.5-0.5 0.5zM5.5 11c0.276 0 0.5 0.224 0.5 0.5v3c0 0.276-0.224 0.5-0.5 0.5s-0.5-0.224-0.5-0.5v-3c0-0.276 0.224-0.5 0.5-0.5zM5.5 17c0.276 0 0.5 0.224 0.5 0.5v3c0 0.276-0.224 0.5-0.5 0.5s-0.5-0.224-0.5-0.5v-3c0-0.276 0.224-0.5 0.5-0.5zM20.736 19.723l-1.014 1.014c-0.186 0.187-0.488 0.187-0.675 0l-2.87-2.87-2.87 2.87c-0.187 0.187-0.488 0.187-0.675 0l-1.013-1.014c-0.187-0.187-0.187-0.488 0-0.675l2.871-2.87-2.871-2.87c-0.187-0.186-0.187-0.488 0-0.675l1.013-1.013c0.187-0.187 0.488-0.187 0.675 0l2.87 2.87 2.87-2.87c0.187-0.187 0.489-0.187 0.675 0l1.014 1.013c0.186 0.187 0.186 0.489 0 0.675l-2.871 2.87 2.871 2.87c0.186 0.186 0.186 0.488 0 0.675zM11.5 26h3c0.275 0 0.5 0.224 0.5 0.5s-0.225 0.5-0.5 0.5h-3c-0.276 0-0.5-0.224-0.5-0.5s0.224-0.5 0.5-0.5z"></path>
</symbol>
<symbol id="icon-add" viewBox="0 0 32 32">
<path d="M26.5 27h-3c-0.276 0-0.5-0.224-0.5-0.5s0.224-0.5 0.5-0.5h2.5v-2.5c0-0.276 0.224-0.5 0.5-0.5 0.275 0 0.5 0.224 0.5 0.5v3c0 0.276-0.225 0.5-0.5 0.5zM26.5 21c-0.276 0-0.5-0.224-0.5-0.5v-3c0-0.276 0.224-0.5 0.5-0.5 0.275 0 0.5 0.224 0.5 0.5v3c0 0.276-0.225 0.5-0.5 0.5zM26.5 15c-0.276 0-0.5-0.224-0.5-0.5v-3c0-0.276 0.224-0.5 0.5-0.5 0.275 0 0.5 0.224 0.5 0.5v3c0 0.276-0.225 0.5-0.5 0.5zM26.5 9c-0.276 0-0.5-0.224-0.5-0.5v-2.5h-2.5c-0.276 0-0.5-0.224-0.5-0.5s0.224-0.5 0.5-0.5h3c0.275 0 0.5 0.224 0.5 0.5v3c0 0.276-0.225 0.5-0.5 0.5zM20.5 27h-3c-0.276 0-0.5-0.224-0.5-0.5s0.224-0.5 0.5-0.5h3c0.275 0 0.5 0.224 0.5 0.5s-0.225 0.5-0.5 0.5zM20.5 6h-3c-0.276 0-0.5-0.224-0.5-0.5s0.224-0.5 0.5-0.5h3c0.275 0 0.5 0.224 0.5 0.5s-0.225 0.5-0.5 0.5zM19.938 15c0.552 0 1 0.447 1 1 0 0.552-0.448 1-1 1h-3v3c0 0.552-0.448 1-1 1-0.553 0-1-0.448-1-1v-3h-3c-0.552 0-1-0.448-1-1 0-0.553 0.447-1 1-1h3v-3c0-0.553 0.447-1 1-1 0.552 0 1 0.447 1 1v3h3zM14.5 6h-3c-0.276 0-0.5-0.224-0.5-0.5s0.224-0.5 0.5-0.5h3c0.275 0 0.5 0.224 0.5 0.5s-0.225 0.5-0.5 0.5zM8.5 27h-3c-0.276 0-0.5-0.224-0.5-0.5v-3c0-0.276 0.224-0.5 0.5-0.5s0.5 0.224 0.5 0.5v2.5h2.5c0.276 0 0.5 0.224 0.5 0.5s-0.224 0.5-0.5 0.5zM8.5 6h-2.5v2.5c0 0.276-0.224 0.5-0.5 0.5s-0.5-0.224-0.5-0.5v-3c0-0.276 0.224-0.5 0.5-0.5h3c0.276 0 0.5 0.224 0.5 0.5s-0.224 0.5-0.5 0.5zM5.5 11c0.276 0 0.5 0.224 0.5 0.5v3c0 0.276-0.224 0.5-0.5 0.5s-0.5-0.224-0.5-0.5v-3c0-0.276 0.224-0.5 0.5-0.5zM5.5 17c0.276 0 0.5 0.224 0.5 0.5v3c0 0.276-0.224 0.5-0.5 0.5s-0.5-0.224-0.5-0.5v-3c0-0.276 0.224-0.5 0.5-0.5zM11.5 26h3c0.275 0 0.5 0.224 0.5 0.5s-0.225 0.5-0.5 0.5h-3c-0.276 0-0.5-0.224-0.5-0.5s0.224-0.5 0.5-0.5z"></path>
</symbol>
<symbol id="icon-search" viewBox="0 0 32 32">
<path d="M20 0.005c-6.627 0-12 5.373-12 12 0 2.026 0.507 3.933 1.395 5.608l-8.344 8.342 0.007 0.006c-0.652 0.641-1.058 1.529-1.058 2.516 0 1.949 1.58 3.529 3.529 3.529 0.985 0 1.874-0.406 2.515-1.059l-0.002-0.002 8.341-8.34c1.676 0.891 3.586 1.4 5.617 1.4 6.627 0 12-5.373 12-12s-5.373-12-12-12zM4.795 29.697c-0.322 0.334-0.768 0.543-1.266 0.543-0.975 0-1.765-0.789-1.765-1.764 0-0.498 0.21-0.943 0.543-1.266l-0.009-0.008 8.066-8.066c0.705 0.951 1.545 1.791 2.494 2.498l-8.063 8.063zM20 22.006c-5.522 0-10-4.479-10-10s4.478-10 10-10c5.521 0 10 4.478 10 10s-4.479 10-10 10zM20 5.005c0.275 0 0.5 0.224 0.5 0.5s-0.225 0.5-0.5 0.5c-3.314 0-6 2.687-6 6 0 0.276-0.224 0.5-0.5 0.5s-0.5-0.224-0.5-0.5c0-3.866 3.133-7 7-7z"></path>
</symbol>
<symbol id="icon-hash" viewBox="0 0 28 32">
<path d="M28 12v-4h-5.004l1-8h-4l-1 8h-7.998l1-8h-4l-1 8h-6.998v4h6.498l-0.998 8h-5.5v4h5l-1 8h4l1-8h7.998l-1 8h4.002l1-8h7v-4h-6.5l0.996-8h5.504zM17.498 20h-7.998l0.998-8h7.998l-0.998 8z"></path>
</symbol>
<symbol id="icon-enlarge" viewBox="0 0 32 32">
<path d="M32 0h-13l5 5-6 6 3 3 6-6 5 5z"></path>
<path d="M32 32v-13l-5 5-6-6-3 3 6 6-5 5z"></path>
<path d="M0 32h13l-5-5 6-6-3-3-6 6-5-5z"></path>
<path d="M0 0v13l5-5 6 6 3-3-6-6 5-5z"></path>
</symbol>
<symbol id="icon-settings" viewBox="0 0 24 24">
<path d="M16 12c0-1.104-0.449-2.106-1.172-2.828s-1.724-1.172-2.828-1.172-2.106 0.449-2.828 1.172-1.172 1.724-1.172 2.828 0.449 2.106 1.172 2.828 1.724 1.172 2.828 1.172 2.106-0.449 2.828-1.172 1.172-1.724 1.172-2.828zM14 12c0 0.553-0.223 1.051-0.586 1.414s-0.861 0.586-1.414 0.586-1.051-0.223-1.414-0.586-0.586-0.861-0.586-1.414 0.223-1.051 0.586-1.414 0.861-0.586 1.414-0.586 1.051 0.223 1.414 0.586 0.586 0.861 0.586 1.414zM20.315 15.404c0.046-0.105 0.112-0.191 0.192-0.257 0.112-0.092 0.251-0.146 0.403-0.147h0.090c0.828 0 1.58-0.337 2.121-0.879s0.879-1.293 0.879-2.121-0.337-1.58-0.879-2.121-1.293-0.879-2.121-0.879h-0.159c-0.11-0.001-0.215-0.028-0.308-0.076-0.127-0.066-0.23-0.172-0.292-0.312-0.003-0.029-0.004-0.059-0.004-0.089-0.024-0.055-0.040-0.111-0.049-0.168 0.020-0.334 0.077-0.454 0.168-0.547l0.062-0.062c0.585-0.586 0.878-1.356 0.877-2.122s-0.294-1.536-0.881-2.122c-0.586-0.585-1.356-0.878-2.122-0.877s-1.536 0.294-2.12 0.879l-0.046 0.046c-0.083 0.080-0.183 0.136-0.288 0.166-0.14 0.039-0.291 0.032-0.438-0.033-0.101-0.044-0.187-0.11-0.253-0.19-0.092-0.112-0.146-0.251-0.147-0.403v-0.090c0-0.828-0.337-1.58-0.879-2.121s-1.293-0.879-2.121-0.879-1.58 0.337-2.121 0.879-0.879 1.293-0.879 2.121v0.159c-0.001 0.11-0.028 0.215-0.076 0.308-0.066 0.127-0.172 0.23-0.312 0.292-0.029 0.003-0.059 0.004-0.089 0.004-0.055 0.024-0.111 0.040-0.168 0.049-0.335-0.021-0.455-0.078-0.548-0.169l-0.062-0.062c-0.586-0.585-1.355-0.878-2.122-0.878s-1.535 0.294-2.122 0.882c-0.585 0.586-0.878 1.355-0.878 2.122s0.294 1.536 0.879 2.12l0.048 0.047c0.080 0.083 0.136 0.183 0.166 0.288 0.039 0.14 0.032 0.291-0.031 0.434-0.006 0.016-0.013 0.034-0.021 0.052-0.041 0.109-0.108 0.203-0.191 0.275-0.11 0.095-0.25 0.153-0.383 0.156h-0.090c-0.828 0-1.58 0.337-2.121 0.879s-0.879 1.294-0.879 2.122 0.337 1.58 0.879 2.121 1.293 0.879 2.121 0.879h0.159c0.11 0.001 0.215 0.028 0.308 0.076 0.128 0.067 0.233 0.174 0.296 0.321 0.024 0.055 0.040 0.111 0.049 0.168-0.020 0.334-0.077 0.454-0.168 0.547l-0.062 0.062c-0.585 0.586-0.878 1.356-0.877 2.122s0.294 1.536 0.881 2.122c0.586 0.585 1.356 0.878 2.122 0.877s1.536-0.294 2.12-0.879l0.047-0.048c0.083-0.080 0.183-0.136 0.288-0.166 0.14-0.039 0.291-0.032 0.434 0.031 0.016 0.006 0.034 0.013 0.052 0.021 0.109 0.041 0.203 0.108 0.275 0.191 0.095 0.11 0.153 0.25 0.156 0.383v0.092c0 0.828 0.337 1.58 0.879 2.121s1.293 0.879 2.121 0.879 1.58-0.337 2.121-0.879 0.879-1.293 0.879-2.121v-0.159c0.001-0.11 0.028-0.215 0.076-0.308 0.067-0.128 0.174-0.233 0.321-0.296 0.055-0.024 0.111-0.040 0.168-0.049 0.334 0.020 0.454 0.077 0.547 0.168l0.062 0.062c0.586 0.585 1.356 0.878 2.122 0.877s1.536-0.294 2.122-0.881c0.585-0.586 0.878-1.356 0.877-2.122s-0.294-1.536-0.879-2.12l-0.048-0.047c-0.080-0.083-0.136-0.183-0.166-0.288-0.039-0.14-0.032-0.291 0.031-0.434zM18.396 9.302c-0.012-0.201-0.038-0.297-0.076-0.382v0.080c0 0.043 0.003 0.084 0.008 0.125 0.021 0.060 0.043 0.119 0.068 0.177 0.004 0.090 0.005 0.091 0.005 0.092 0.249 0.581 0.684 1.030 1.208 1.303 0.371 0.193 0.785 0.298 1.211 0.303h0.18c0.276 0 0.525 0.111 0.707 0.293s0.293 0.431 0.293 0.707-0.111 0.525-0.293 0.707-0.431 0.293-0.707 0.293h-0.090c-0.637 0.003-1.22 0.228-1.675 0.603-0.323 0.266-0.581 0.607-0.75 0.993-0.257 0.582-0.288 1.21-0.127 1.782 0.119 0.423 0.341 0.814 0.652 1.136l0.072 0.073c0.196 0.196 0.294 0.45 0.294 0.707s-0.097 0.512-0.292 0.707c-0.197 0.197-0.451 0.295-0.709 0.295s-0.512-0.097-0.707-0.292l-0.061-0.061c-0.463-0.453-1.040-0.702-1.632-0.752-0.437-0.037-0.882 0.034-1.293 0.212-0.578 0.248-1.027 0.683-1.3 1.206-0.193 0.371-0.298 0.785-0.303 1.211v0.181c0 0.276-0.111 0.525-0.293 0.707s-0.43 0.292-0.706 0.292-0.525-0.111-0.707-0.293-0.293-0.431-0.293-0.707v-0.090c-0.015-0.66-0.255-1.242-0.644-1.692-0.284-0.328-0.646-0.585-1.058-0.744-0.575-0.247-1.193-0.274-1.756-0.116-0.423 0.119-0.814 0.341-1.136 0.652l-0.073 0.072c-0.196 0.196-0.45 0.294-0.707 0.294s-0.512-0.097-0.707-0.292c-0.197-0.197-0.295-0.451-0.295-0.709s0.097-0.512 0.292-0.707l0.061-0.061c0.453-0.463 0.702-1.040 0.752-1.632 0.037-0.437-0.034-0.882-0.212-1.293-0.248-0.578-0.683-1.027-1.206-1.3-0.371-0.193-0.785-0.298-1.211-0.303l-0.18 0.001c-0.276 0-0.525-0.111-0.707-0.293s-0.293-0.431-0.293-0.707 0.111-0.525 0.293-0.707 0.431-0.293 0.707-0.293h0.090c0.66-0.015 1.242-0.255 1.692-0.644 0.328-0.284 0.585-0.646 0.744-1.058 0.247-0.575 0.274-1.193 0.116-1.756-0.119-0.423-0.341-0.814-0.652-1.136l-0.073-0.073c-0.196-0.196-0.294-0.45-0.294-0.707s0.097-0.512 0.292-0.707c0.197-0.197 0.451-0.295 0.709-0.295s0.512 0.097 0.707 0.292l0.061 0.061c0.463 0.453 1.040 0.702 1.632 0.752 0.37 0.032 0.745-0.014 1.101-0.137 0.096-0.012 0.186-0.036 0.266-0.072-0.031 0.001-0.061 0.003-0.089 0.004-0.201 0.012-0.297 0.038-0.382 0.076h0.080c0.043 0 0.084-0.003 0.125-0.008 0.060-0.021 0.119-0.043 0.177-0.068 0.090-0.004 0.091-0.005 0.092-0.005 0.581-0.249 1.030-0.684 1.303-1.208 0.193-0.37 0.298-0.785 0.303-1.21v-0.181c0-0.276 0.111-0.525 0.293-0.707s0.431-0.293 0.707-0.293 0.525 0.111 0.707 0.293 0.293 0.431 0.293 0.707v0.090c0.003 0.637 0.228 1.22 0.603 1.675 0.266 0.323 0.607 0.581 0.996 0.751 0.578 0.255 1.206 0.286 1.778 0.125 0.423-0.119 0.814-0.341 1.136-0.652l0.073-0.072c0.196-0.196 0.45-0.294 0.707-0.294s0.512 0.097 0.707 0.292c0.197 0.197 0.295 0.451 0.295 0.709s-0.097 0.512-0.292 0.707l-0.061 0.061c-0.453 0.463-0.702 1.040-0.752 1.632-0.032 0.37 0.014 0.745 0.137 1.101 0.012 0.095 0.037 0.185 0.072 0.266-0.001-0.032-0.002-0.062-0.004-0.089z"></path>
</symbol>
</defs>
</svg>
